REM DIRINDEX 1\2,1\3\7,1\3\8,1\4\9,1\4\10,1\4\11,1\5\12,1\5\13,1\5\14,1\6\15,1\6\16,1\6\17
REM DIRNAME "folder01","folder02","folder03","folder04","folder05","folder06","folder07","folder08","folder09","folder10","folder11","folder12","folder13","folder14","folder15","folder16","folder17"
TITLE ""
FILE "2Q_t_0671-0687.mp3" MP3
  TRACK 01 AUDIO
    TITLE "0:"
    INDEX 01 00:00:00
  TRACK 02 AUDIO
    TITLE "7:cjc174_3106"
    INDEX 01 00:00:08
  TRACK 03 AUDIO
    TITLE "0:"
    INDEX 01 00:01:12
  TRACK 04 AUDIO
    TITLE "8:cjc174_3107"
    INDEX 01 00:01:59
  TRACK 05 AUDIO
    TITLE "0:"
    INDEX 01 00:04:39
  TRACK 06 AUDIO
    TITLE "7:cjc174_3108"
    INDEX 01 00:05:10
  TRACK 07 AUDIO
    TITLE "0:"
    INDEX 01 00:06:23
  TRACK 08 AUDIO
    TITLE "8:cjc174_3109"
    INDEX 01 00:06:70
  TRACK 09 AUDIO
    TITLE "0:"
    INDEX 01 00:09:09
  TRACK 10 AUDIO
    TITLE "7:cjc174_3110"
    INDEX 01 00:09:52
  TRACK 11 AUDIO
    TITLE "0:"
    INDEX 01 00:11:04
  TRACK 12 AUDIO
    TITLE "8:cjc174_3111"
    INDEX 01 00:11:61
  TRACK 13 AUDIO
    TITLE "0:"
    INDEX 01 00:14:42
  TRACK 14 AUDIO
    TITLE "7:cjc174_3112"
    INDEX 01 00:15:14
  TRACK 15 AUDIO
    TITLE "0:"
    INDEX 01 00:16:17
  TRACK 16 AUDIO
    TITLE "8:cjc174_3113"
    INDEX 01 00:16:62
  TRACK 17 AUDIO
    TITLE "0:"
    INDEX 01 00:19:31
  TRACK 18 AUDIO
    TITLE "7:cjc174_3114"
    INDEX 01 00:20:01
  TRACK 19 AUDIO
    TITLE "0:"
    INDEX 01 00:21:05
  TRACK 20 AUDIO
    TITLE "8:cjc174_3115"
    INDEX 01 00:21:59
  TRACK 21 AUDIO
    TITLE "0:"
    INDEX 01 00:24:05
  TRACK 22 AUDIO
    TITLE "7:cjc174_3116"
    INDEX 01 00:24:52
  TRACK 23 AUDIO
    TITLE "0:"
    INDEX 01 00:26:10
  TRACK 24 AUDIO
    TITLE "8:cjc174_3117"
    INDEX 01 00:26:59
  TRACK 25 AUDIO
    TITLE "0:"
    INDEX 01 00:28:63
  TRACK 26 AUDIO
    TITLE "2:cjc174_3118"
    INDEX 01 00:29:34
  TRACK 27 AUDIO
    TITLE "0:"
    INDEX 01 00:30:54
  TRACK 28 AUDIO
    TITLE "7:cjc174_3119"
    INDEX 01 00:31:23
  TRACK 29 AUDIO
    TITLE "0:"
    INDEX 01 00:32:28
  TRACK 30 AUDIO
    TITLE "8:cjc174_3120"
    INDEX 01 00:32:75
  TRACK 31 AUDIO
    TITLE "0:"
    INDEX 01 00:35:46
  TRACK 32 AUDIO
    TITLE "7:cjc174_3121"
    INDEX 01 00:36:16
  TRACK 33 AUDIO
    TITLE "0:"
    INDEX 01 00:37:39
  TRACK 34 AUDIO
    TITLE "8:cjc174_3122"
    INDEX 01 00:38:17
  TRACK 35 AUDIO
    TITLE "0:"
    INDEX 01 00:40:57
  TRACK 36 AUDIO
    TITLE "7:cjc174_3123"
    INDEX 01 00:41:27
  TRACK 37 AUDIO
    TITLE "0:"
    INDEX 01 00:42:32
  TRACK 38 AUDIO
    TITLE "8:cjc174_3124"
    INDEX 01 00:43:02
  TRACK 39 AUDIO
    TITLE "0:"
    INDEX 01 00:45:38
  TRACK 40 AUDIO
    TITLE "7:cjc174_3125"
    INDEX 01 00:46:08
  TRACK 41 AUDIO
    TITLE "0:"
    INDEX 01 00:47:10
  TRACK 42 AUDIO
    TITLE "8:cjc174_3126"
    INDEX 01 00:47:65
  TRACK 43 AUDIO
    TITLE "0:"
    INDEX 01 00:49:71
  TRACK 44 AUDIO
    TITLE "7:cjc174_3127"
    INDEX 01 00:50:42
  TRACK 45 AUDIO
    TITLE "0:"
    INDEX 01 00:52:01
  TRACK 46 AUDIO
    TITLE "8:cjc174_3128"
    INDEX 01 00:52:50
  TRACK 47 AUDIO
    TITLE "0:"
    INDEX 01 00:53:59
  TRACK 48 AUDIO
    TITLE "7:cjc174_3129"
    INDEX 01 00:54:30
  TRACK 49 AUDIO
    TITLE "0:"
    INDEX 01 00:55:33
  TRACK 50 AUDIO
    TITLE "8:cjc174_3130"
    INDEX 01 00:56:13
  TRACK 51 AUDIO
    TITLE "0:"
    INDEX 01 00:58:12
  TRACK 52 AUDIO
    TITLE "7:cjc174_3131"
    INDEX 01 00:58:55
  TRACK 53 AUDIO
    TITLE "0:"
    INDEX 01 00:59:52
  TRACK 54 AUDIO
    TITLE "8:cjc174_3132"
    INDEX 01 01:00:28
  TRACK 55 AUDIO
    TITLE "0:"
    INDEX 01 01:02:62
  TRACK 56 AUDIO
    TITLE "7:cjc174_3133"
    INDEX 01 01:03:30
  TRACK 57 AUDIO
    TITLE "0:"
    INDEX 01 01:04:42
  TRACK 58 AUDIO
    TITLE "8:cjc174_3134"
    INDEX 01 01:05:18
  TRACK 59 AUDIO
    TITLE "0:"
    INDEX 01 01:07:56
  TRACK 60 AUDIO
    TITLE "7:cjc174_3135"
    INDEX 01 01:08:28
  TRACK 61 AUDIO
    TITLE "0:"
    INDEX 01 01:09:41
  TRACK 62 AUDIO
    TITLE "8:cjc174_3136"
    INDEX 01 01:10:17
  TRACK 63 AUDIO
    TITLE "0:"
    INDEX 01 01:12:49
  TRACK 64 AUDIO
    TITLE "7:cjc174_3137"
    INDEX 01 01:13:19
  TRACK 65 AUDIO
    TITLE "0:"
    INDEX 01 01:14:32
  TRACK 66 AUDIO
    TITLE "8:cjc174_3138"
    INDEX 01 01:15:04
  TRACK 67 AUDIO
    TITLE "0:"
    INDEX 01 01:17:40
  TRACK 68 AUDIO
    TITLE "7:cjc174_3139"
    INDEX 01 01:18:10
  TRACK 69 AUDIO
    TITLE "0:"
    INDEX 01 01:19:12
  TRACK 70 AUDIO
    TITLE "8:cjc174_3140"
    INDEX 01 01:19:69
  TRACK 71 AUDIO
    TITLE "0:"
    INDEX 01 01:22:43
